<!--?xml version="1.0" encoding="utf-8"?-->
<!-- Generator: Adobe Illustrator 18.0.0, SVG Export Plug-In . SVG Version: 6.00 Build 0)  -->

<svg version="1.1" id="_x32_" xmlns="http://www.w3.org/2000/svg" xmlns:xlink="http://www.w3.org/1999/xlink" x="0px" y="0px" viewBox="0 0 512 512" style="width: 16px; height: 16px; opacity: 1;" xml:space="preserve">
<style type="text/css">
	.st0{fill:#4B4B4B;}
</style>
<g>
	<path class="st0" d="M424.266,117.915c-0.246-15.479-3.409-30.51-9.415-44.709c-6.04-14.278-14.679-27.095-25.678-38.095
		c-11-11-23.817-19.639-38.095-25.678C336.28,3.174,320.578,0,304.407,0c-16.17,0-31.872,3.174-46.67,9.433
		c-14.278,6.039-27.095,14.678-38.095,25.678c-11,11-19.639,23.816-25.678,38.095c-6.259,14.798-9.433,30.5-9.433,46.67v228.881
		c0,10.898,2.141,21.485,6.364,31.468c4.072,9.628,9.896,18.268,17.308,25.681c7.413,7.413,16.053,13.236,25.681,17.308
		c9.983,4.222,20.57,6.364,31.468,6.364c10.898,0,21.485-2.141,31.468-6.364c9.628-4.072,18.268-9.896,25.681-17.308
		c7.413-7.413,13.236-16.053,17.309-25.681c4.222-9.983,6.363-20.571,6.363-31.468V198.913h-59.226v149.844
		c0,11.907-9.687,21.594-21.594,21.594s-21.594-9.687-21.594-21.594V119.876c0-33.442,27.207-60.65,60.65-60.65
		s60.65,27.207,60.65,60.65v223.84c0,60.134-48.922,109.057-109.057,109.057S146.943,403.85,146.943,343.716V10.124H87.716v338.309
		h0.067c0.574,21.041,4.996,41.472,13.17,60.797c8.478,20.042,20.607,38.036,36.052,53.482
		c15.446,15.445,33.439,27.575,53.482,36.052C211.253,507.546,233.295,512,256,512s44.747-4.454,65.513-13.237
		c20.042-8.477,38.036-20.607,53.482-36.052c15.446-15.445,27.575-33.439,36.052-53.482c7.938-18.768,12.339-38.578,13.112-58.978
		h0.124V117.915H424.266z" style="fill: rgb(223, 223, 223);"></path>
</g>
</svg>
